<?xml version="1.0" standalone="no"?>
<!DOCTYPE svg PUBLIC "-//W3C//DTD SVG 20010904//EN"
 "http://www.w3.org/TR/2001/REC-SVG-20010904/DTD/svg10.dtd">
<svg version="1.0" xmlns="http://www.w3.org/2000/svg"
 width="640.000000pt" height="640.000000pt" viewBox="0 0 640.000000 640.000000"
 preserveAspectRatio="xMidYMid meet">
<metadata>
Created by potrace 1.14, written by Peter Selinger 2001-2017
</metadata>
<g transform="translate(0.000000,640.000000) scale(0.100000,-0.100000)"
fill="#000000" stroke="none">
<path d="M2975 6244 c-291 -29 -478 -66 -710 -140 -1004 -325 -1769 -1142
-2024 -2162 -67 -268 -85 -423 -86 -732 0 -321 18 -482 86 -754 181 -722 639
-1377 1249 -1783 415 -276 838 -434 1350 -505 127 -17 593 -17 720 0 581 80
1082 287 1515 626 648 507 1055 1229 1157 2056 17 137 17 584 0 710 -85 627
-323 1169 -711 1620 -220 255 -471 467 -763 643 -337 204 -736 342 -1158 403
-100 14 -536 27 -625 18z m700 -635 c87 -17 150 -34 303 -81 17 -5 32 -12 32
-15 0 -8 -73 7 -86 18 -7 6 -24 -1 -47 -19 -47 -35 -47 -45 0 -22 34 16 69 17
46 1 -12 -8 -14 -51 -3 -51 5 0 12 5 15 10 3 6 11 10 17 10 6 0 -1 -15 -16
-34 -27 -36 -32 -47 -18 -44 4 1 19 -4 34 -12 19 -9 31 -10 40 -3 7 6 24 9 36
8 14 -1 26 5 30 14 8 22 28 41 36 34 3 -4 6 -1 6 5 0 7 7 12 15 12 8 0 15 7
15 16 0 19 20 14 105 -27 275 -131 467 -259 664 -440 62 -58 64 -59 122 -59
l59 0 86 -107 c84 -106 213 -293 249 -363 136 -264 184 -375 231 -535 63 -219
92 -400 101 -640 7 -190 0 -273 -22 -255 -9 8 -14 6 -20 -7 -7 -17 -8 -17 -14
1 -6 16 -10 14 -25 -18 -17 -37 -42 -47 -52 -22 -3 8 -8 35 -12 62 -7 44 -32
76 -32 39 0 -14 -6 -16 -37 -10 -21 4 -46 14 -55 22 -9 8 -20 13 -25 10 -4 -3
-26 5 -48 17 -45 26 -54 59 -17 64 25 4 28 12 10 30 -17 17 -28 15 -28 -7 0
-10 -11 -26 -25 -35 -31 -21 -33 -20 -38 7 -4 21 -4 21 -6 -3 -2 -36 -34 -75
-56 -67 -13 6 -15 14 -9 39 9 40 8 48 -1 71 -5 12 -2 17 9 17 9 0 16 6 16 14
0 28 -12 46 -32 46 -10 0 -16 5 -13 10 3 6 1 10 -4 10 -6 0 -11 7 -11 15 0 8
-6 15 -14 15 -7 0 -19 7 -26 15 -7 8 -26 15 -42 15 -39 0 -28 16 17 24 49 9
63 34 80 141 3 17 8 44 11 61 l6 31 -99 -2 c-68 -2 -81 -1 -43 4 30 3 50 9 45
13 -17 11 -138 2 -164 -11 -16 -9 -43 -11 -87 -6 -55 6 -64 4 -64 -9 0 -23
-36 -20 -53 4 l-14 21 -37 -22 c-20 -11 -36 -18 -36 -15 0 4 -12 0 -27 -7 -19
-10 -47 -13 -86 -9 -44 3 -61 1 -70 -10 -13 -17 -82 -34 -72 -18 3 6 13 10 21
10 8 0 19 11 24 25 5 14 13 25 17 25 5 0 14 14 21 30 8 17 24 33 37 36 31 8
86 64 62 64 -11 0 -14 5 -11 15 5 13 2 14 -21 5 -14 -5 -44 -10 -66 -10 -30 0
-38 -3 -32 -12 4 -7 -5 -5 -19 4 -25 17 -27 17 -26 0 0 -9 -3 -32 -7 -49 -7
-32 8 -49 18 -20 8 21 19 0 12 -23 -6 -18 -12 -21 -34 -17 -20 4 -30 0 -40
-15 -11 -18 -11 -20 2 -15 11 4 13 0 9 -15 -4 -16 -2 -19 9 -13 12 7 12 6 1
-7 -7 -8 -24 -15 -38 -15 -30 0 -43 -17 -45 -53 0 -20 -3 -17 -12 14 -11 35
-14 37 -26 23 -20 -25 14 -142 51 -179 32 -31 40 -34 36 -14 -2 8 2 16 7 18
15 4 18 -57 5 -83 -10 -17 -9 -20 1 -17 13 4 43 -17 45 -31 2 -15 17 -70 29
-106 7 -22 25 -77 40 -122 28 -90 30 -78 -21 -178 -43 -84 -45 -88 -33 -96 8
-5 6 -11 -9 -20 -15 -10 -18 -17 -10 -26 8 -10 4 -15 -17 -23 -47 -18 -70 -9
-44 17 6 6 13 38 16 72 3 34 10 64 14 67 5 3 9 19 9 35 0 16 9 40 20 52 11 12
18 28 15 35 -4 10 0 12 12 8 14 -6 15 -4 6 5 -13 13 -37 3 -27 -12 7 -12 -25
-51 -37 -44 -14 9 -21 -15 -9 -30 10 -12 9 -16 -4 -21 -9 -3 -16 -10 -16 -15
0 -26 -81 -85 -105 -75 -17 6 -24 -13 -15 -39 4 -11 3 -35 -1 -55 -5 -19 -9
-61 -9 -92 0 -64 -15 -82 -41 -49 -16 20 -16 25 -3 56 20 48 18 58 -6 45 -11
-6 -20 -8 -20 -5 0 3 -9 1 -20 -5 -11 -6 -20 -17 -20 -24 0 -7 -9 -21 -20 -31
-12 -11 -20 -31 -20 -51 0 -18 -4 -36 -10 -39 -5 -3 -7 0 -4 8 3 10 -4 14 -26
14 -24 0 -29 -4 -24 -16 4 -9 9 -27 12 -39 4 -22 3 -23 -17 -10 -12 7 -24 22
-27 33 -3 13 -13 20 -29 20 -20 0 -24 -4 -21 -28 2 -16 9 -34 15 -40 6 -6 11
-20 11 -31 0 -12 -3 -16 -8 -11 -16 24 -76 59 -80 47 -2 -7 -8 -10 -13 -7 -11
7 -23 -40 -16 -60 4 -8 2 -17 -3 -20 -17 -11 -6 -57 15 -65 22 -9 55 -45 55
-60 0 -15 -16 -12 -54 10 l-35 19 9 -25 c14 -35 14 -34 -20 -34 -28 0 -30 -2
-24 -27 4 -16 28 -46 52 -68 25 -22 62 -55 81 -72 l36 -32 -40 -1 c-44 0 -94
26 -136 71 -22 24 -35 29 -73 29 -63 0 -61 -23 4 -46 28 -10 50 -21 50 -25 0
-4 -42 -5 -92 -3 -61 2 -88 0 -78 -6 8 -5 12 -10 8 -10 -20 0 42 -53 89 -77
29 -15 53 -31 53 -35 0 -4 -7 -5 -15 -2 -8 4 -23 3 -32 -1 -10 -4 -34 -8 -54
-10 -40 -3 -99 -30 -99 -45 0 -5 4 -11 10 -15 5 -3 7 -12 4 -19 -4 -11 16 -24
49 -30 8 -1 8 -4 1 -33 -4 -14 -17 -24 -37 -29 l-31 -6 24 -20 24 -19 -30 7
c-46 11 -47 13 -41 85 6 67 5 69 -15 58 -17 -9 -19 -8 -14 8 6 20 -44 83 -67
83 -14 0 -72 -61 -69 -72 1 -5 -5 -8 -13 -8 -9 0 -15 9 -15 24 0 43 -68 47
-90 5 -9 -16 -6 -22 23 -39 21 -13 40 -35 50 -60 l15 -39 -32 -7 c-17 -4 -44
-20 -61 -36 l-30 -29 -5 69 c-5 73 -26 112 -59 112 -14 0 -14 -2 -1 -10 8 -5
11 -12 7 -16 -4 -4 -1 -14 7 -23 16 -19 29 -91 16 -91 -4 0 -11 6 -13 13 -3 7
-6 5 -6 -5 -1 -10 -12 -20 -26 -24 -13 -3 -27 -15 -30 -25 -5 -15 -10 -17 -26
-9 -10 6 -18 16 -16 22 1 7 -6 14 -16 16 -16 3 -15 -1 7 -35 34 -49 40 -63 33
-70 -3 -3 -232 -8 -509 -11 -453 -4 -504 -3 -516 11 -17 21 -8 50 27 86 l28
29 452 -6 c405 -4 451 -3 451 11 0 8 11 28 24 44 13 15 26 38 30 51 13 40 54
72 93 72 23 0 45 9 65 25 26 22 37 25 73 20 33 -6 43 -4 48 9 4 9 13 16 22 16
20 0 95 76 95 96 0 9 24 39 53 67 29 29 59 67 66 85 9 21 26 38 47 47 25 10
34 20 34 38 0 41 37 109 90 166 38 41 50 61 50 85 0 24 9 40 40 69 22 20 40
41 40 46 0 6 16 35 35 65 24 38 55 69 102 100 38 25 97 66 132 91 35 26 78 54
95 64 17 9 48 28 70 41 l38 23 -53 28 c-30 16 -61 28 -70 29 -9 0 -28 9 -42
20 -14 11 -32 20 -40 20 -8 0 -35 12 -61 26 -47 26 -51 35 -40 92 5 25 11 30
32 29 38 -3 68 57 82 166 17 122 4 186 -56 285 -91 152 -174 224 -287 253 -27
6 -58 21 -69 33 -16 17 -31 21 -86 21 -75 0 -155 -31 -206 -78 l-29 -27 26 0
c23 0 24 -2 14 -24 -7 -13 -15 -22 -18 -20 -4 2 -12 -3 -19 -11 -7 -9 -21 -13
-31 -10 -11 4 -19 2 -19 -4 0 -6 -7 -11 -15 -11 -20 0 -19 12 5 38 11 11 16
23 11 26 -11 7 -86 -74 -96 -103 -3 -11 -10 -21 -14 -21 -5 0 -13 -12 -19 -27
-5 -16 -19 -53 -31 -83 -39 -102 -61 -276 -61 -491 0 -108 -3 -199 -7 -202 -3
-4 -13 -1 -22 6 -26 23 -51 28 -51 12 0 -25 -17 -17 -30 14 -16 38 -48 68 -85
77 -28 7 -29 6 -15 -11 14 -17 13 -18 -8 -13 -14 4 -20 2 -16 -4 4 -6 1 -9 -5
-7 -7 3 -12 9 -12 14 0 6 -8 14 -17 19 -12 7 -24 0 -49 -29 -34 -39 -42 -68
-21 -81 7 -4 8 -3 4 4 -4 7 -3 12 2 12 6 0 13 16 16 35 4 19 10 35 15 35 9 0
-10 -115 -21 -126 -5 -4 -8 -2 -8 4 0 6 -10 12 -22 14 -15 2 -22 9 -22 21 1 9
-5 17 -13 17 -11 0 -13 -7 -9 -25 5 -18 1 -27 -14 -35 -20 -11 -30 3 -10 15
20 12 10 35 -15 35 -14 0 -30 9 -37 21 -7 11 -32 29 -55 39 -25 11 -43 26 -43
35 0 8 -7 18 -15 21 -8 4 -15 14 -15 23 0 9 -5 23 -10 31 -9 13 -11 13 -20 0
-12 -19 -12 -20 -15 64 -3 60 -1 69 16 73 10 3 19 9 19 14 0 5 11 9 23 9 19 0
79 23 96 36 2 2 5 32 8 66 l4 63 -53 13 c-30 6 -69 12 -88 13 -29 0 -31 2 -15
9 19 8 19 9 -3 9 -19 1 -22 5 -17 22 5 15 4 19 -4 15 -7 -5 -11 2 -11 18 0 14
5 26 10 26 6 0 10 9 10 19 0 10 8 29 18 41 15 19 20 20 33 9 15 -15 79 -20 79
-7 0 5 5 8 10 8 6 0 10 -7 10 -15 0 -39 44 3 54 52 4 18 3 34 -3 38 -6 3 -11
-1 -11 -9 0 -9 -4 -16 -9 -16 -13 0 -7 63 7 68 7 2 22 -19 36 -51 24 -53 26
-55 73 -61 97 -14 108 -22 123 -88 7 -32 17 -61 22 -64 5 -3 5 -11 -1 -18 -11
-13 -4 -56 9 -56 4 0 7 -11 6 -24 0 -13 -4 -22 -8 -19 -5 2 -8 -15 -8 -38 0
-48 8 -45 27 9 18 52 17 96 -2 88 -15 -6 -21 9 -7 18 4 2 9 33 10 68 1 35 5
74 7 88 8 37 -22 155 -50 200 -40 64 -101 98 -205 115 -56 10 -210 -14 -262
-41 -47 -24 -128 -115 -148 -169 -20 -52 -12 -171 15 -236 23 -53 24 -62 11
-80 -11 -16 -12 -29 -4 -57 18 -63 70 -164 88 -169 9 -2 22 -19 28 -37 7 -18
21 -41 32 -51 11 -10 20 -22 20 -27 0 -14 -52 -68 -66 -68 -6 0 -14 -7 -18
-15 -3 -8 -31 -27 -63 -42 -38 -17 -52 -28 -40 -31 23 -5 22 -29 -2 -37 -11
-3 -21 -13 -23 -22 -2 -12 -8 -11 -28 9 -53 52 -122 99 -140 93 -10 -3 -23 2
-31 11 -13 16 -12 16 9 5 13 -7 22 -8 22 -2 0 14 -39 34 -55 27 -7 -2 -21 2
-32 10 -17 14 -16 15 10 9 46 -10 23 11 -56 51 -98 48 -117 56 -117 44 0 -6
12 -15 27 -21 50 -19 94 -42 89 -46 -2 -2 -24 5 -49 16 -50 23 -77 27 -77 11
0 -5 -14 -22 -30 -37 -19 -17 -30 -36 -30 -53 0 -24 6 -29 42 -38 23 -6 45 -9
49 -6 4 2 25 -2 46 -10 21 -8 67 -22 103 -31 110 -27 201 -72 272 -134 25 -22
67 -79 111 -153 l16 -26 57 54 c31 29 61 51 65 48 21 -13 6 -36 -33 -53 -24
-10 -52 -28 -62 -40 -21 -23 -21 -23 12 -111 7 -18 -58 47 -75 75 -6 11 -19
35 -28 53 -10 17 -21 32 -26 32 -5 0 -9 5 -9 11 0 12 -50 59 -62 59 -5 0 -8 7
-8 15 0 19 -24 19 -44 0 -8 -8 -22 -12 -30 -9 -10 4 -27 -6 -46 -26 l-30 -32
0 31 c0 41 -18 47 -77 27 -56 -19 -53 -19 -53 -2 0 27 51 76 91 86 21 6 39 12
39 14 0 9 -88 46 -107 46 -11 0 -26 -6 -33 -14 -6 -8 -17 -13 -25 -10 -7 3
-17 -1 -21 -8 -6 -9 -10 -6 -14 12 -7 29 -41 38 -60 15 -7 -8 -16 -15 -21 -15
-15 0 -10 27 7 44 14 15 14 18 -8 36 -12 11 -29 19 -35 20 -21 0 -15 -10 12
-20 28 -11 34 -33 8 -28 -33 5 -41 -9 -32 -61 9 -58 1 -91 -36 -158 -32 -58
-70 -91 -79 -67 -3 8 5 23 19 36 18 15 22 25 15 38 -6 11 -4 26 5 44 11 20 12
33 4 47 -7 14 -6 21 3 24 7 3 14 25 16 51 2 39 0 45 -14 40 -8 -3 -19 -6 -24
-6 -13 0 -6 -46 10 -64 10 -13 10 -16 -2 -16 -28 0 -68 25 -63 40 2 8 0 22 -5
30 -8 13 -10 12 -10 -2 0 -10 -6 -18 -14 -18 -9 0 -12 -7 -9 -20 3 -13 -1 -22
-12 -26 -10 -4 -13 -9 -6 -13 6 -4 8 -17 4 -29 -4 -17 -13 -22 -39 -22 -33 0
-34 1 -34 39 0 34 -5 44 -33 65 -19 15 -41 26 -50 26 -9 0 -39 9 -67 20 -27
11 -50 17 -50 14 0 -3 -5 -2 -11 2 -8 4 -8 9 0 17 14 14 14 54 -1 63 -6 4 -16
0 -23 -9 -19 -26 -25 -20 -25 21 0 21 -3 42 -7 45 -12 13 -33 -15 -33 -44 0
-31 -9 -36 -28 -17 -9 9 -12 9 -13 -2 -2 -46 -9 -62 -43 -109 -21 -28 -44 -51
-53 -51 -23 0 -53 19 -53 35 0 7 -3 15 -7 17 -12 5 -43 64 -43 81 0 9 -10 23
-21 31 -19 13 -21 22 -17 70 3 31 1 56 -3 56 -38 0 -10 -145 40 -207 17 -22
35 -53 40 -70 10 -33 4 -83 -10 -83 -5 0 -9 -11 -9 -25 0 -14 5 -25 10 -25 6
0 10 -8 10 -17 0 -15 -2 -15 -9 -4 -8 12 -12 13 -26 1 -13 -11 -18 -10 -30 6
-12 16 -17 17 -34 7 -11 -7 -33 -10 -49 -7 -23 5 -33 1 -49 -20 -15 -19 -23
-22 -31 -14 -9 9 -15 8 -25 -5 -7 -11 -22 -16 -37 -14 -23 3 -27 12 -42 88
-10 46 -20 123 -24 172 -7 94 -10 90 48 90 10 0 15 4 12 8 -3 5 -20 8 -37 6
l-32 -2 -6 85 c-13 193 10 466 56 676 94 424 284 792 595 1157 11 12 30 17 73
17 l58 0 82 75 c85 77 187 158 193 152 2 -2 -1 -20 -7 -40 -7 -25 -7 -43 1
-56 18 -34 11 -55 -23 -71 -36 -17 -37 -23 -17 -133 12 -60 15 -67 32 -61 17
5 19 3 13 -18 -4 -12 -7 -25 -7 -28 0 -22 4 -30 17 -30 8 0 15 -4 15 -10 0 -5
7 -10 16 -10 14 0 15 12 9 98 -5 66 -12 103 -22 115 -9 9 -11 17 -5 17 6 0 14
-5 17 -10 4 -7 16 -1 30 15 32 33 40 32 70 -12 17 -26 25 -51 25 -80 0 -24 3
-43 8 -43 4 0 8 -11 8 -25 1 -15 -3 -25 -12 -25 -11 0 -14 -20 -14 -94 0 -84
-2 -94 -20 -99 -10 -3 -21 0 -23 7 -2 6 -8 8 -12 4 -21 -20 105 -148 145 -148
6 0 26 -11 43 -23 80 -59 287 -92 287 -45 0 6 8 17 18 24 16 12 15 14 -8 15
-14 1 -29 3 -35 4 -5 2 -19 3 -30 4 -17 1 -18 3 -5 11 18 11 22 10 -60 16
-110 7 -96 36 20 40 30 1 65 3 78 3 17 1 24 9 28 30 7 33 72 91 102 91 11 0
31 9 46 21 24 19 26 25 20 68 -6 46 -5 47 35 75 30 21 46 42 60 82 12 29 26
63 33 74 11 16 10 25 -4 47 -19 32 -35 40 -40 20 -3 -13 -11 -12 -58 1 -57 16
-126 17 -144 3 -17 -13 -86 -23 -86 -13 0 5 -23 20 -52 32 -42 18 -67 21 -142
20 -116 -3 -128 -2 -121 9 12 20 -52 37 -66 18 -12 -16 -58 -17 -73 -1 -18 17
-20 50 -7 107 8 31 6 37 -8 37 -9 0 -27 -7 -39 -16 -12 -8 -22 -12 -22 -7 0
17 278 185 385 233 28 12 54 25 59 28 5 3 7 -2 3 -10 -4 -12 5 -17 40 -22 71
-9 141 -7 149 5 3 6 19 9 35 7 16 -3 29 -2 29 0 0 3 -16 24 -35 48 -19 23 -35
45 -35 48 0 8 220 76 247 76 15 0 22 -4 17 -11 -3 -6 -8 -97 -10 -202 -3 -151
-1 -207 12 -262 9 -43 13 -87 9 -113 -5 -31 -2 -50 9 -67 9 -14 16 -48 17 -77
1 -42 3 -48 9 -28 5 14 8 18 9 9 1 -9 7 -21 14 -27 11 -9 12 -3 7 36 -4 26
-12 59 -18 74 -6 14 -12 50 -13 80 -2 29 -7 59 -12 66 -5 6 -6 12 -1 12 5 -1
23 -19 39 -40 17 -22 38 -50 48 -62 l17 -21 23 21 c13 12 31 22 40 22 9 0 19
5 23 11 4 7 -3 10 -19 7 -15 -1 -25 2 -24 7 1 6 24 10 50 10 49 0 67 12 67 46
0 11 -8 17 -24 17 -29 0 -127 23 -142 34 -6 4 -20 6 -32 3 -12 -2 -24 1 -27 6
-4 5 -11 7 -16 4 -5 -4 -9 8 -9 24 0 17 4 31 8 31 4 0 9 14 10 32 2 30 29 61
44 52 5 -3 13 7 18 22 18 45 55 83 72 73 9 -5 37 -5 64 0 27 5 52 7 55 5 4 -2
18 8 31 24 24 29 38 30 98 8 19 -7 52 -14 72 -14 29 -1 46 -9 72 -36 32 -33
35 -34 70 -24 21 7 42 20 47 30 9 16 12 17 33 3 17 -11 22 -22 18 -40 -2 -14
-11 -25 -19 -25 -11 0 -11 -4 3 -17 17 -17 17 -18 -5 -21 -15 -3 -21 -8 -17
-19 3 -8 6 -27 6 -42 0 -20 7 -31 25 -39 17 -8 23 -17 20 -32 -2 -12 1 -32 7
-45 8 -18 8 -28 -1 -39 -6 -8 -8 -16 -3 -18 5 -1 12 -27 16 -55 6 -45 4 -52
-9 -47 -11 5 -15 -1 -15 -22 0 -19 -3 -25 -8 -16 -6 8 -13 -8 -21 -45 -7 -32
-17 -67 -21 -78 -16 -38 -17 -50 -8 -69 9 -17 7 -18 -17 -12 -25 6 -27 5 -21
-17 5 -21 3 -23 -23 -19 -26 4 -28 2 -24 -21 4 -19 0 -27 -15 -31 -29 -10 -37
-35 -9 -30 20 4 19 3 -2 -6 -19 -8 -28 -7 -41 5 -12 11 -20 13 -25 6 -3 -6 -1
-11 4 -11 16 0 51 -32 45 -42 -3 -4 -14 -8 -25 -8 -11 0 -19 -7 -19 -16 0 -12
-6 -15 -26 -10 -17 5 -23 3 -19 -4 3 -5 1 -10 -5 -10 -7 0 -10 -6 -7 -12 7
-20 -183 -13 -228 8 -19 9 -35 22 -35 30 0 7 -9 18 -20 24 -11 6 -17 16 -14
25 4 8 11 12 18 8 18 -13 198 -12 211 0 17 16 -29 39 -61 31 -14 -4 -37 -2
-52 4 -15 6 -36 13 -47 17 -20 6 -20 7 -1 21 12 8 22 10 26 5 7 -13 73 -14
135 -2 37 7 57 6 77 -4 22 -11 28 -11 32 2 4 9 -4 18 -24 25 -17 5 -30 14 -30
19 0 5 -16 9 -36 9 -19 0 -33 -4 -29 -9 5 -9 -21 -9 -147 -1 -9 1 -19 11 -22
23 l-6 22 -15 -22 c-10 -15 -21 -19 -37 -15 -17 4 -20 2 -15 -12 4 -10 1 -26
-7 -37 -12 -17 -15 -18 -26 -4 -7 8 -9 15 -4 15 4 0 0 6 -10 13 -10 7 -17 20
-16 28 5 29 0 38 -17 32 -10 -4 -14 -2 -9 5 3 6 2 13 -4 17 -5 3 -10 17 -10
31 0 13 -5 24 -10 24 -51 0 121 -337 196 -387 19 -12 47 -17 103 -16 86 0 125
15 181 70 54 52 110 101 110 97 0 -3 17 4 38 15 54 28 102 85 102 121 0 20 5
30 15 30 8 0 15 7 15 16 0 11 -6 14 -21 9 -19 -6 -21 -4 -17 24 2 17 1 31 -3
31 -4 0 -4 12 0 28 5 19 15 28 32 30 41 5 56 62 31 123 -17 41 -13 96 8 102
24 6 45 -8 70 -48 12 -19 26 -33 31 -29 5 3 9 -30 9 -77 0 -70 4 -89 25 -126
14 -23 30 -43 35 -43 6 0 13 -1 17 -2 6 -3 5 43 -2 147 -1 21 -8 31 -21 34
-25 4 -34 19 -34 57 0 22 5 33 18 37 12 2 22 17 26 38 17 89 51 141 71 109 3
-5 22 -10 40 -10 19 0 55 -10 80 -22 54 -26 68 -18 31 20 -17 19 -24 35 -20
45 4 12 2 16 -8 12 -8 -3 -25 -1 -39 4 l-24 10 25 2 c14 1 3 5 -25 10 -27 4
-59 10 -70 12 -92 22 -95 24 -95 73 0 16 -4 34 -9 40 -11 12 -37 95 -54 174
l-14 65 -52 6 c-29 4 -55 10 -59 14 -12 12 168 -5 273 -26z m-1638 -605 c-3
-3 -12 -4 -19 -1 -8 3 -5 6 6 6 11 1 17 -2 13 -5z m501 -66 c28 -28 3 -122
-39 -152 -15 -10 -44 -16 -80 -16 -46 0 -61 5 -83 25 -25 23 -37 75 -16 75 5
0 24 -9 42 -20 32 -19 90 -26 122 -14 24 9 8 24 -27 25 l-32 1 28 10 c19 7 32
7 40 0 7 -6 18 -7 26 -3 10 6 9 11 -3 24 -9 8 -16 20 -16 26 0 5 -8 15 -17 20
-15 9 -13 10 13 11 16 0 35 -5 42 -12z m-88 -38 c0 -5 -4 -10 -10 -10 -5 0
-10 5 -10 10 0 6 5 10 10 10 6 0 10 -4 10 -10z m-162 -68 c7 -21 21 -47 32
-57 11 -10 20 -26 20 -36 0 -16 -6 -18 -37 -14 -20 2 -40 10 -45 17 -6 10 -8
10 -8 -1 0 -10 -3 -11 -14 -2 -16 14 -26 70 -14 77 5 3 6 14 3 24 -3 10 1 25
11 34 21 22 37 9 52 -42z m-305 36 c2 -9 27 -13 75 -13 51 0 72 -4 72 -12 0
-7 7 -13 16 -13 24 0 7 -19 -32 -35 -27 -11 -46 -12 -87 -5 -55 11 -77 30 -77
67 0 24 25 32 33 11z m197 -98 c0 -5 -7 -10 -16 -10 -8 0 -12 5 -9 10 3 6 10
10 16 10 5 0 9 -4 9 -10z m-256 -15 c-4 -8 -10 -12 -15 -9 -11 6 -2 24 11 24
5 0 7 -7 4 -15z m1436 -41 c0 -8 -5 -12 -10 -9 -6 4 -8 11 -5 16 9 14 15 11
15 -7z m-1410 -35 c0 -5 -4 -9 -10 -9 -5 0 -10 7 -10 16 0 8 5 12 10 9 6 -3
10 -10 10 -16z m427 -14 c18 -11 33 -27 33 -35 0 -13 -1 -13 -10 0 -8 12 -10
12 -10 1 0 -10 -13 -12 -57 -8 -32 4 -64 6 -72 7 -24 0 9 30 34 30 13 0 26 7
29 16 7 17 7 17 53 -11z m459 -37 c-3 -13 -6 -29 -6 -37 0 -11 -3 -11 -15 -1
-12 10 -15 10 -15 0 0 -8 -2 -11 -5 -8 -7 7 28 68 39 68 4 0 6 -10 2 -22z
m-836 -38 c0 -5 -2 -10 -4 -10 -3 0 -8 5 -11 10 -3 6 -1 10 4 10 6 0 11 -4 11
-10z m215 -1 c10 -15 -1 -23 -20 -15 -9 3 -13 10 -10 16 8 13 22 13 30 -1z
m76 -5 c-2 -5 -6 -15 -8 -21 -3 -7 -18 -13 -33 -13 -24 0 -27 3 -22 25 4 21 9
24 36 21 17 -2 29 -7 27 -12z m510 -702 c-7 -2 -18 1 -23 6 -8 8 -4 9 13 5 13
-4 18 -8 10 -11z m-11 -32 c0 -12 -37 -50 -49 -50 -16 0 -14 17 4 24 8 3 15
14 15 25 0 14 5 19 15 15 8 -4 15 -9 15 -14z m-280 0 c0 -5 -5 -10 -11 -10 -5
0 -7 5 -4 10 3 6 8 10 11 10 2 0 4 -4 4 -10z m1306 -7 c23 -21 114 -139 114
-147 0 -3 -9 -6 -21 -6 -12 0 -37 -8 -57 -17 -77 -35 -86 -59 -53 -133 15 -35
19 -38 24 -21 6 23 36 28 54 10 6 -6 30 -15 52 -19 33 -6 44 -4 57 11 10 11
21 19 25 19 11 0 29 -61 26 -90 -4 -29 -27 -80 -37 -80 -15 0 -30 -54 -30
-109 0 -40 -5 -63 -15 -71 -8 -7 -15 -11 -16 -9 0 2 -3 17 -5 33 -10 59 -74
74 -126 31 -16 -14 -37 -25 -46 -26 -9 0 -4 -4 11 -9 15 -5 42 -4 59 1 36 10
41 8 32 -14 -3 -9 -20 -19 -37 -22 -127 -26 -137 -45 -24 -45 90 0 109 -10 82
-40 -23 -26 -70 -52 -88 -49 -6 1 -25 -3 -42 -10 -49 -21 -87 -24 -150 -12
-51 9 -66 17 -102 54 -46 49 -60 88 -69 193 -5 54 -3 77 7 92 24 33 119 104
154 113 54 15 88 47 81 78 -4 14 -9 37 -12 51 -3 13 -9 30 -15 36 -13 16 -3
39 47 108 24 32 46 72 49 87 8 34 41 39 71 12z m-316 -66 c0 -7 -9 -27 -21
-46 -16 -27 -23 -31 -30 -20 -12 19 -11 32 2 23 7 -4 9 0 5 14 -4 12 -1 26 9
36 17 17 35 13 35 -7z m-830 3 c0 -5 -4 -10 -10 -10 -5 0 -10 5 -10 10 0 6 5
10 10 10 6 0 10 -4 10 -10z m-141 -74 c-13 -19 -29 -32 -36 -29 -10 4 -9 8 3
20 8 9 23 27 32 41 9 14 18 20 20 13 2 -7 -6 -27 -19 -45z m68 32 c-3 -8 -6
-5 -6 6 -1 11 2 17 5 13 3 -3 4 -12 1 -19z m1337 -73 c7 -20 -14 -28 -45 -16
l-24 9 25 10 c34 14 37 14 44 -3z m1073 -41 c-3 -3 -12 -4 -19 -1 -8 3 -5 6 6
6 11 1 17 -2 13 -5z m-1122 -34 c-28 -12 -37 -12 -30 0 3 6 16 10 28 9 21 0
21 -1 2 -9z m490 -40 c-3 -5 -10 -10 -16 -10 -5 0 -9 5 -9 10 0 6 7 10 16 10
8 0 12 -4 9 -10z m458 -14 c3 -8 -5 -18 -20 -25 -19 -9 -24 -9 -20 1 2 7 10
12 16 10 7 -1 10 2 6 8 -3 6 -11 8 -16 5 -5 -4 -9 -1 -9 4 0 16 37 13 43 -3z
m-530 -41 l6 -40 -13 35 c-7 19 -11 39 -9 43 7 12 10 6 16 -38z m886 -12 c-13
-59 -63 -83 -172 -83 -49 0 -62 4 -85 26 -22 22 -23 25 -7 20 45 -16 75 -17
129 -6 31 6 56 16 56 21 0 5 16 15 35 23 19 8 35 20 35 25 0 6 4 11 9 11 5 0
5 -16 0 -37z m-324 -24 c20 -23 43 -56 51 -74 7 -18 22 -35 34 -38 39 -10 20
-44 -22 -38 -3 0 -34 3 -68 6 -44 3 -67 10 -76 22 -12 16 -15 16 -24 3 -5 -8
-10 -10 -11 -5 0 6 -2 21 -5 34 -2 13 0 29 5 35 5 6 12 22 16 35 7 23 41 60
56 61 4 0 23 -18 44 -41z m-2327 -12 c4 -20 -25 -34 -40 -19 -15 15 -1 44 19
40 10 -2 19 -11 21 -21z m1886 -3 c9 -25 7 -64 -4 -64 -10 0 -11 4 -14 53 -2
30 8 36 18 11z m307 -32 c-13 -25 -31 -38 -61 -46 -22 -6 -21 -5 5 10 17 9 36
25 43 36 17 23 26 23 13 0z m-2356 -33 c0 -8 4 -17 9 -20 13 -10 -2 -61 -16
-53 -9 6 -9 9 -1 11 9 3 8 15 -2 44 -11 31 -12 40 -2 36 6 -2 12 -10 12 -18z
m2230 -46 c-11 -3 -35 -16 -53 -30 -35 -26 -67 -27 -67 -3 -1 26 28 39 85 39
30 -1 46 -4 35 -6z m127 -35 c-15 -15 -26 -4 -18 18 5 13 9 15 18 6 9 -9 9
-15 0 -24z m-2232 -28 c0 -5 -4 -10 -10 -10 -5 0 -10 5 -10 10 0 6 5 10 10 10
6 0 10 -4 10 -10z m2786 -182 c-18 -26 -22 -17 -5 14 6 11 13 17 16 15 3 -3
-2 -16 -11 -29z m-475 -7 c7 11 9 10 9 -4 0 -20 -22 -19 -26 1 -2 9 -1 9 3 1
4 -8 8 -7 14 2z m215 -71 c25 -27 46 -40 63 -40 37 0 50 -12 48 -40 -4 -50
-46 -89 -116 -109 -90 -27 -165 -41 -173 -33 -11 11 35 102 52 102 8 0 22 5
30 11 12 9 10 10 -8 6 -15 -4 -22 -1 -19 6 2 7 18 12 35 12 16 0 28 4 25 9 -3
4 0 12 7 16 17 10 3 31 -15 23 -8 -3 -15 0 -15 6 0 6 -7 11 -15 11 -14 0 -14
3 0 30 22 43 55 40 101 -10z m-2026 -65 c11 -13 8 -15 -14 -15 -25 0 -33 10
-19 23 10 11 19 8 33 -8z m-1716 -24 c3 -5 -5 -11 -19 -13 -24 -5 -32 2 -18
15 9 10 31 9 37 -2z m1146 -1 c0 -5 6 -10 13 -10 6 0 23 -9 37 -20 l25 -20
-30 0 c-47 0 -75 11 -75 29 0 10 3 21 7 24 10 10 23 8 23 -3z m370 -10 c0 -5
-4 -10 -10 -10 -5 0 -10 5 -10 10 0 6 5 10 10 10 6 0 10 -4 10 -10z m2904 -18
c0 -12 3 -19 8 -16 4 3 8 -4 8 -14 0 -30 -32 -37 -52 -12 -17 21 -17 23 0 46
20 27 37 26 36 -4z m-4484 -37 c-7 -8 -16 -15 -21 -15 -15 0 -10 28 9 46 16
17 17 17 20 0 2 -9 -2 -23 -8 -31z m1495 25 c-4 -6 9 -10 32 -11 21 0 47 -4
58 -9 14 -7 10 -8 -16 -4 -44 7 -56 -7 -28 -32 33 -30 40 -50 27 -78 -6 -14
-17 -26 -24 -26 -7 0 -14 -5 -16 -11 -6 -19 -56 8 -73 40 -21 41 -19 67 7 93
13 13 22 29 20 35 -2 7 2 13 8 13 6 0 8 -4 5 -10z m-1244 -67 c5 -13 9 -35 9
-47 0 -25 3 -24 -78 -17 -7 1 -24 13 -39 27 l-25 25 -40 -28 c-86 -61 -78 -58
-85 -35 -3 12 -9 19 -14 16 -10 -6 -12 7 -3 30 3 9 15 16 26 16 10 0 33 8 51
17 90 47 179 45 198 -4z m934 37 c3 -5 1 -10 -4 -10 -6 0 -11 5 -11 10 0 6 2
10 4 10 3 0 8 -4 11 -10z m-1235 -16 c0 -8 -5 -12 -10 -9 -6 4 -8 11 -5 16 9
14 15 11 15 -7z m3185 -112 c-8 -8 -25 10 -25 26 0 13 2 13 14 -4 8 -10 13
-21 11 -22z m-2790 -282 c-3 -5 -11 -10 -16 -10 -6 0 -7 5 -4 10 3 6 11 10 16
10 6 0 7 -4 4 -10z m2355 -41 c0 -14 -17 -10 -23 5 -4 10 -1 13 9 9 7 -3 14
-9 14 -14z m-1360 -190 c0 -5 -7 -6 -15 -3 -8 4 -15 13 -15 21 0 13 3 13 15 3
8 -7 15 -16 15 -21z m18 -44 c-3 -3 -9 2 -12 12 -6 14 -5 15 5 6 7 -7 10 -15
7 -18z m101 -190 c0 -5 -6 -2 -13 7 -7 10 -15 16 -17 13 -3 -2 -5 4 -5 13 -1
9 -4 26 -9 37 -4 11 4 2 19 -20 14 -22 25 -44 25 -50z m-913 -30 c-4 -14 -11
-25 -17 -25 -8 0 -7 5 1 15 9 11 9 15 1 15 -8 0 -8 4 1 14 17 19 22 12 14 -19z
m-6 -50 c0 -8 -6 -15 -12 -15 -7 -1 -3 -9 10 -20 17 -14 21 -25 16 -44 -4 -19
-2 -27 10 -31 51 -16 51 -16 37 -24 -10 -6 -9 -10 4 -15 9 -3 26 -6 38 -6 16
0 18 -3 9 -12 -16 -16 -15 -28 3 -28 18 0 20 -20 3 -21 -10 0 -10 -2 -1 -5 7
-3 22 0 34 6 15 8 19 9 15 1 -4 -6 -2 -11 4 -11 6 0 24 -10 40 -21 28 -21 28
-23 15 -58 -7 -20 -21 -61 -30 -91 -24 -77 -135 -363 -146 -374 -5 -6 -9 -18
-9 -28 0 -10 -2 -18 -5 -18 -7 0 -58 32 -65 40 -3 4 -45 34 -95 68 -82 56
-345 293 -345 311 0 5 64 7 143 5 117 -3 134 -1 97 7 -25 6 -50 15 -56 20 -6
5 -61 14 -122 21 -61 6 -114 14 -119 17 -15 10 -93 113 -93 122 0 5 77 6 170
2 l171 -6 -10 26 c-10 26 -9 27 22 26 26 0 29 -2 12 -9 -19 -7 -19 -8 -2 -15
15 -6 16 -10 5 -16 -9 -6 -3 -9 17 -9 21 0 26 3 16 9 -9 6 -10 11 -2 15 6 4
16 4 23 0 6 -4 17 1 23 10 12 15 14 15 28 1 15 -14 17 -13 31 7 7 13 17 53 21
91 6 66 7 67 35 67 16 0 32 5 35 10 9 15 25 12 25 -5z m-290 -125 c0 -5 -5
-10 -11 -10 -5 0 -7 5 -4 10 3 6 8 10 11 10 2 0 4 -4 4 -10z m385 0 c3 -5 1
-10 -4 -10 -6 0 -11 5 -11 10 0 6 2 10 4 10 3 0 8 -4 11 -10z m1550 0 c5 -8
11 -8 20 0 10 8 17 6 29 -11 14 -21 14 -24 -1 -41 -10 -11 -24 -16 -35 -12
-11 3 -18 0 -18 -9 0 -7 -11 -24 -24 -36 l-23 -22 -7 32 c-9 48 -7 84 6 97 15
15 45 16 53 2z m-125 -100 c-8 -5 -17 -7 -19 -4 -3 3 1 9 9 14 8 5 17 7 19 4
3 -3 -1 -9 -9 -14z m1935 -22 c-4 -13 -17 -33 -29 -45 -21 -23 -22 -23 -446
-28 -234 -3 -553 -7 -710 -9 -157 -2 -298 -1 -314 3 -30 6 -43 35 -25 57 5 6
7 18 3 27 -5 13 77 15 761 16 l766 1 -6 -22z m-2075 -16 c0 -14 -39 -32 -46
-21 -4 6 0 15 7 20 17 11 39 12 39 1z m90 -37 c7 -8 21 -15 31 -15 26 0 24
-13 -3 -25 -12 -6 -25 -21 -29 -35 -6 -20 -7 -17 -8 17 -1 23 -5 45 -11 48
-12 8 -13 25 -1 25 5 0 14 -7 21 -15z m-95 -15 c18 -7 18 -9 3 -15 -10 -4 -20
-15 -23 -26 -10 -31 -25 -22 -25 16 0 36 8 41 45 25z m325 -19 c0 -13 -66 -61
-74 -54 -10 10 -7 55 4 48 5 -3 18 -1 27 4 22 13 43 14 43 2z m110 -40 c0 -11
5 -21 10 -23 6 -2 1 -9 -10 -16 -19 -11 -20 -10 -20 23 0 19 5 35 10 35 6 0
10 -9 10 -19z m-1370 -6 c0 -9 -15 -64 -34 -123 -52 -163 -104 -334 -110 -364
-7 -30 -26 -39 -26 -12 0 9 -5 12 -12 8 -7 -5 -9 -2 -5 9 4 11 2 14 -8 10 -8
-3 -12 -10 -8 -16 4 -7 -1 -8 -13 -4 -16 6 -16 4 3 -12 30 -25 17 -35 -19 -13
-25 15 -30 15 -38 2 -8 -12 -10 -10 -10 8 0 12 4 22 10 22 5 0 6 8 3 17 -5 14
-8 12 -16 -10 -5 -15 -13 -27 -18 -27 -14 0 -14 2 32 140 9 30 23 75 29 100
12 47 63 209 80 254 9 25 13 26 85 26 61 0 75 -3 75 -15z m1087 -32 c3 -7 -8
-13 -24 -15 -23 -2 -29 -9 -31 -33 -4 -29 -3 -29 16 -11 23 20 42 14 42 -14 0
-23 -52 -44 -69 -27 -12 12 -15 76 -3 93 16 24 62 29 69 7z m-799 -19 l184 -7
-5 -26 c-4 -20 1 -31 20 -45 24 -18 25 -18 44 1 11 11 21 33 22 49 2 28 4 29
62 32 33 2 80 0 105 -3 l45 -7 -38 -18 c-21 -11 -56 -18 -79 -17 -48 2 -55
-11 -57 -96 -1 -49 -21 -59 -21 -11 0 21 -5 24 -34 24 -19 0 -47 -5 -63 -11
-15 -6 -30 -11 -33 -11 -25 -1 -41 -23 -38 -51 3 -29 0 -32 -24 -32 -22 1 -29
-5 -33 -27 -8 -34 -36 -51 -71 -42 -19 5 -25 4 -20 -5 5 -7 -3 -11 -23 -11
-17 0 -31 -4 -31 -10 0 -5 -6 -10 -12 -10 -13 0 -58 -62 -58 -80 0 -5 -9 -14
-20 -20 -11 -6 -20 -17 -20 -26 0 -8 -11 -19 -25 -26 -13 -6 -22 -15 -19 -20
3 -5 -5 -8 -18 -7 -48 4 -68 -1 -68 -18 0 -15 -2 -16 -10 -3 -5 8 -7 22 -4 31
3 12 -1 16 -13 15 -34 -2 -21 85 54 354 19 69 37 131 39 139 3 10 15 12 42 8
20 -4 120 -9 220 -13z m972 6 c0 -5 -4 -10 -10 -10 -5 0 -19 -9 -30 -20 -17
-17 -21 -18 -26 -5 -11 27 4 45 36 45 16 0 30 -4 30 -10z m39 -4 c10 -12 8
-13 -8 -9 -12 3 -21 9 -21 14 0 14 16 11 29 -5z m-423 -11 c4 -8 12 -15 20
-15 22 0 17 -38 -6 -50 -25 -13 -20 -42 13 -77 33 -37 5 -26 -31 11 -18 19
-32 41 -30 50 2 8 -4 21 -13 28 -9 7 -19 25 -23 41 -6 26 -4 27 29 27 22 0 38
-6 41 -15z m528 -21 c17 -6 22 -30 9 -37 -5 -2 -20 -7 -35 -11 -32 -7 -37 7
-11 36 18 21 16 20 37 12z m-284 -44 c0 -5 -5 -10 -11 -10 -5 0 -7 5 -4 10 3
6 8 10 11 10 2 0 4 -4 4 -10z m151 -6 c14 -18 3 -29 -39 -40 -33 -9 -36 0 -10
30 27 30 31 31 49 10z m968 -306 c-1 -37 -2 -39 -9 -18 -12 36 -12 60 0 60 6
0 10 -19 9 -42z m-1988 -21 c-16 -16 -26 0 -10 19 9 11 15 12 17 4 2 -6 -1
-17 -7 -23z m409 23 c0 -5 -5 -10 -11 -10 -5 0 -7 5 -4 10 3 6 8 10 11 10 2 0
4 -4 4 -10z m-83 -49 c3 -11 11 -22 19 -25 8 -3 14 -10 14 -16 0 -5 -16 -2
-35 7 -21 10 -35 24 -35 35 0 24 31 23 37 -1z m165 -102 c-4 -47 -30 -149 -39
-149 -3 0 -1 24 3 53 7 51 10 80 13 125 0 14 6 22 14 19 8 -2 11 -19 9 -48z
m-832 -4 c0 -14 -4 -25 -10 -25 -11 0 -14 33 -3 43 11 11 13 8 13 -18z m50
-29 c0 -9 -30 -14 -35 -6 -4 6 3 10 14 10 12 0 21 -2 21 -4z m657 -222 c-3 -3
-12 -4 -19 -1 -8 3 -5 6 6 6 11 1 17 -2 13 -5z m60 -10 c-3 -3 -12 -4 -19 -1
-8 3 -5 6 6 6 11 1 17 -2 13 -5z m80 -10 c-3 -3 -12 -4 -19 -1 -8 3 -5 6 6 6
11 1 17 -2 13 -5z m501 -1 c-10 -2 -28 -2 -40 0 -13 2 -5 4 17 4 22 1 32 -1
23 -4z m-180 -10 c-32 -2 -86 -2 -120 0 -35 2 -9 3 57 3 66 0 94 -1 63 -3z"/>
<path d="M3862 5543 c-7 -2 -17 -14 -23 -25 -10 -19 -10 -19 15 -3 14 10 26
21 26 26 0 5 -1 9 -2 8 -2 0 -9 -3 -16 -6z"/>
<path d="M3650 5489 c0 -5 5 -7 10 -4 6 3 10 8 10 11 0 2 -4 4 -10 4 -5 0 -10
-5 -10 -11z"/>
<path d="M3620 5448 c-12 -22 -12 -22 6 -6 10 10 15 20 12 24 -4 3 -12 -5 -18
-18z"/>
<path d="M4330 5260 c8 -5 20 -10 25 -10 6 0 3 5 -5 10 -8 5 -19 10 -25 10 -5
0 -3 -5 5 -10z"/>
<path d="M4481 5190 c-25 -4 -47 -12 -49 -19 -8 -24 -35 -41 -65 -41 -53 0
-77 -11 -83 -37 -5 -16 0 -31 13 -46 11 -12 23 -27 27 -34 10 -18 -52 -239
-85 -305 -19 -37 -19 -38 -1 -38 40 0 92 54 184 189 16 23 43 47 63 55 41 17
78 84 67 120 -10 30 -7 57 8 88 11 23 10 31 -4 53 -9 14 -20 24 -24 24 -4 -1
-27 -5 -51 -9z m-105 -280 c22 0 16 -28 -7 -35 -30 -10 -44 8 -28 36 7 15 14
19 17 11 2 -6 10 -12 18 -12z"/>
<path d="M1992 5130 c-16 -35 -8 -57 14 -39 11 9 11 15 3 25 -9 11 -8 14 6 14
9 0 15 5 13 12 -8 23 -23 18 -36 -12z"/>
<path d="M4053 5135 c-26 -18 -30 -25 -20 -34 9 -7 24 -8 48 -1 47 14 59 13
53 -5 -5 -11 1 -15 19 -15 14 0 29 -4 32 -10 10 -17 75 -12 75 5 0 8 -6 15
-12 15 -7 0 -44 16 -81 35 -38 19 -71 35 -75 34 -4 0 -22 -11 -39 -24z"/>
<path d="M3723 5143 c-7 -2 -13 -9 -13 -15 0 -7 5 -6 14 1 7 6 21 9 30 5 9 -3
16 -1 16 5 0 11 -25 14 -47 4z"/>
<path d="M3784 5132 c3 -6 -2 -13 -11 -16 -12 -3 -10 -4 5 -3 24 2 32 19 11
26 -6 2 -9 -1 -5 -7z"/>
<path d="M3145 5090 c-3 -6 4 -14 17 -19 21 -9 20 -10 -10 -10 -18 -1 -40 6
-48 13 -10 11 -35 15 -84 14 -39 -1 -70 -3 -70 -4 0 -2 12 -24 26 -51 14 -26
23 -40 20 -31 -4 15 2 17 52 14 31 -2 73 -5 92 -6 l35 -2 -30 -14 -30 -15 33
5 c29 5 59 11 72 16 3 1 12 2 20 1 8 -1 32 7 53 18 l38 19 -38 19 c-27 12 -33
19 -20 21 9 2 17 8 17 13 0 12 -137 12 -145 -1z"/>
<path d="M4118 5063 c6 -2 18 -2 25 0 6 3 1 5 -13 5 -14 0 -19 -2 -12 -5z"/>
<path d="M3376 5001 c-4 -7 -5 -15 -2 -18 9 -9 19 4 14 18 -4 11 -6 11 -12 0z"/>
<path d="M3045 4987 c-18 -14 -14 -37 8 -37 7 0 6 4 -3 10 -12 7 -10 11 10 18
14 5 32 12 40 15 9 3 5 6 -11 6 -14 1 -33 -5 -44 -12z"/>
<path d="M2840 4869 c0 -5 5 -7 10 -4 6 3 10 8 10 11 0 2 -4 4 -10 4 -5 0 -10
-5 -10 -11z"/>
<path d="M3005 4861 c-7 -12 12 -24 25 -16 11 7 4 25 -10 25 -5 0 -11 -4 -15
-9z"/>
<path d="M3037 4833 c-4 -3 -7 -11 -7 -17 0 -6 5 -5 12 2 6 6 9 14 7 17 -3 3
-9 2 -12 -2z"/>
<path d="M3920 4814 l-25 -15 25 5 c14 3 33 6 43 6 9 0 17 5 17 10 0 15 -31
12 -60 -6z"/>
<path d="M2820 4786 c0 -42 48 -87 98 -92 35 -3 42 -1 42 14 0 12 13 23 36 31
29 11 60 47 49 59 -5 5 -128 -30 -142 -40 -7 -6 -24 2 -47 23 l-36 31 0 -26z"/>
<path d="M3825 4709 c-7 -10 135 -31 190 -27 l50 3 -60 8 c-33 4 -86 11 -118
15 -32 5 -60 5 -62 1z"/>
<path d="M3230 4670 c0 -5 7 -10 15 -10 8 0 15 5 15 10 0 6 -7 10 -15 10 -8 0
-15 -4 -15 -10z"/>
<path d="M3903 4613 c9 -2 23 -2 30 0 6 3 -1 5 -18 5 -16 0 -22 -2 -12 -5z"/>
<path d="M3865 4480 c7 -12 82 -12 110 0 14 6 -1 9 -48 9 -43 1 -66 -3 -62 -9z"/>
<path d="M2265 4410 c27 -12 43 -12 25 0 -8 5 -22 9 -30 9 -10 0 -8 -3 5 -9z"/>
<path d="M4995 4200 c-3 -5 3 -10 15 -10 12 0 19 -4 15 -9 -7 -13 28 -23 50
-15 13 5 16 4 11 -4 -4 -7 -1 -12 7 -12 7 0 23 -9 34 -19 11 -11 37 -23 57
-26 32 -6 52 -25 26 -25 -5 0 -10 -5 -10 -11 0 -7 11 -8 30 -4 19 4 30 3 30
-4 0 -6 -6 -11 -14 -11 -15 0 -10 -39 5 -41 10 -2 10 -2 52 -14 32 -9 49 1 27
16 -11 8 -10 9 8 4 12 -3 22 -2 22 3 0 10 -19 20 -33 18 -4 0 -15 13 -23 31
-9 17 -30 39 -47 48 -18 9 -45 23 -60 32 -15 8 -56 22 -90 30 -34 8 -66 19
-71 24 -13 12 -33 11 -41 -1z"/>
<path d="M4953 4127 c-32 -10 -46 -37 -19 -37 28 0 123 -45 194 -91 l73 -48 9
25 c13 33 14 31 -15 38 -16 4 -22 11 -19 21 4 11 -1 15 -17 15 -19 0 -21 2 -9
10 12 8 12 10 -3 16 -9 3 -17 12 -17 19 0 8 -12 11 -35 9 -25 -2 -35 2 -35 12
0 18 -15 18 -32 1 -10 -12 -15 -11 -28 3 -12 14 -21 15 -47 7z"/>
<path d="M4464 4058 c-4 -7 -3 -8 5 -4 6 4 14 0 17 -8 7 -17 24 -22 24 -6 0
16 -38 32 -46 18z"/>
<path d="M4552 4023 c-60 -75 -72 -91 -72 -97 0 -4 10 3 23 14 12 12 41 36 64
53 51 39 61 57 30 57 -13 0 -33 -12 -45 -27z"/>
<path d="M4413 4010 c-13 -5 -23 -13 -23 -18 0 -5 -11 -14 -24 -22 -13 -7 -32
-29 -43 -49 -10 -20 -22 -39 -27 -42 -5 -4 -6 -19 -2 -33 4 -17 1 -35 -10 -51
-8 -13 -13 -29 -9 -35 3 -5 0 -10 -8 -10 -19 0 -30 -42 -14 -52 7 -4 7 -8 2
-8 -6 0 -11 -9 -12 -20 -2 -25 -2 -25 44 2 l38 22 -19 -22 c-11 -12 -25 -22
-33 -22 -14 0 -15 -1 -19 -47 -1 -18 2 -35 7 -39 5 -3 9 2 9 10 0 10 6 13 15
10 8 -4 15 -1 15 5 0 6 -5 11 -11 11 -24 0 -3 35 22 36 42 2 67 26 37 37 -7 2
-2 2 10 0 15 -2 21 0 17 7 -3 5 -12 10 -20 10 -8 0 -11 7 -8 19 3 12 -2 20
-16 24 -12 3 -24 1 -27 -4 -3 -5 -9 -9 -14 -9 -13 0 -9 58 5 64 8 3 11 -2 8
-12 -3 -14 4 -18 36 -18 22 -1 38 2 35 7 -3 5 -16 9 -30 9 -13 0 -24 5 -24 10
0 6 11 10 25 10 28 0 32 12 10 30 -23 19 -18 30 15 30 31 0 42 23 18 34 -7 3
-3 3 8 1 15 -4 24 0 28 11 7 20 -10 35 -31 27 -7 -3 -13 0 -13 6 0 10 16 15
48 14 6 -1 12 3 12 7 0 5 -6 11 -12 13 -7 3 -3 6 9 6 25 1 43 21 19 21 -9 0
-16 5 -16 11 0 6 7 8 16 5 8 -3 12 -2 9 4 -7 12 -22 12 -52 0z m-28 -145 c-5
-2 -22 -6 -37 -9 -20 -5 -28 -13 -29 -29 -1 -21 -1 -21 -8 3 -9 31 3 40 49 39
19 0 31 -2 25 -4z"/>
<path d="M5315 3960 c3 -5 1 -10 -4 -10 -6 0 -11 -7 -11 -15 0 -8 5 -15 11
-15 8 0 8 -4 0 -14 -10 -11 -8 -17 6 -25 16 -9 16 -10 -5 -11 -15 0 -21 -4
-16 -11 4 -7 8 -28 10 -47 2 -19 12 -53 24 -76 11 -23 20 -47 20 -53 0 -6 6
-14 13 -17 9 -3 7 -9 -6 -19 -10 -9 -14 -18 -8 -21 5 -3 11 -1 13 6 3 9 6 9
12 0 4 -7 2 -12 -3 -12 -21 0 -11 -55 14 -82 25 -27 33 -58 16 -58 -5 0 -12
-10 -16 -22 -4 -14 -8 -18 -12 -10 -2 6 -8 12 -13 12 -15 0 -20 -31 -8 -53 7
-12 11 -31 10 -42 -2 -12 2 -32 7 -45 8 -20 10 -21 10 -6 1 12 6 16 16 12 9
-3 15 0 15 9 0 8 5 15 11 15 5 0 8 4 5 9 -4 5 -2 11 2 13 18 7 22 67 5 84 -13
13 -14 17 -3 24 7 4 19 6 27 3 10 -4 12 8 6 58 -3 35 -9 66 -13 69 -4 3 -8 18
-8 33 0 19 5 27 14 23 17 -6 8 17 -22 63 -25 37 -24 52 1 31 13 -10 15 -9 15
9 0 11 -5 21 -11 21 -5 0 -7 5 -4 10 3 6 -2 10 -12 11 -16 0 -16 1 2 8 19 8
19 8 0 19 -12 7 -15 12 -6 12 11 0 10 5 -3 24 -12 18 -12 26 -3 29 6 3 -1 6
-18 7 -18 2 -23 4 -12 7 22 6 22 16 -1 36 -20 18 -77 24 -67 7z m35 -30 c24
-15 7 -18 -20 -3 -14 7 -18 13 -10 13 8 0 22 -4 30 -10z m44 -146 c5 -14 4
-15 -9 -4 -17 14 -19 20 -6 20 5 0 12 -7 15 -16z m6 -194 c0 -5 -7 -10 -16
-10 -8 0 -12 5 -9 10 3 6 10 10 16 10 5 0 9 -4 9 -10z m30 -35 c11 -13 10 -14
-4 -9 -9 3 -16 10 -16 15 0 13 6 11 20 -6z"/>
<path d="M5210 3940 c0 -5 5 -10 10 -10 6 0 10 5 10 10 0 6 -4 10 -10 10 -5 0
-10 -4 -10 -10z"/>
<path d="M4378 3833 c7 -3 16 -2 19 1 4 3 -2 6 -13 5 -11 0 -14 -3 -6 -6z"/>
<path d="M1260 3760 c-59 -9 -104 -30 -165 -78 -32 -24 -50 -46 -50 -59 0 -12
-8 -30 -17 -40 -9 -10 -24 -38 -34 -63 -10 -25 -22 -48 -27 -51 -6 -4 -3 -16
7 -30 14 -21 21 -19 17 4 -1 5 8 6 19 2 17 -5 21 -3 18 12 -2 14 2 17 25 15
18 -2 29 2 33 12 4 10 18 16 37 16 30 0 80 43 92 79 11 37 46 46 173 46 84 1
125 4 131 13 5 8 17 5 43 -13 21 -14 41 -25 47 -25 24 0 131 -161 131 -196 0
-8 4 -14 9 -14 11 0 2 71 -10 85 -5 5 -9 18 -9 30 0 11 -11 33 -25 49 -14 16
-25 32 -25 36 0 11 -89 95 -137 130 -24 16 -52 30 -62 30 -11 0 -23 5 -26 10
-7 11 -125 11 -195 0z"/>
<path d="M4350 3600 c8 -5 20 -10 25 -10 6 0 3 5 -5 10 -8 5 -19 10 -25 10 -5
0 -3 -5 5 -10z"/>
<path d="M5310 3600 c0 -13 28 -25 38 -16 3 4 0 11 -8 16 -20 13 -30 12 -30 0z"/>
<path d="M5283 3553 c-7 -2 -13 -12 -13 -22 0 -22 -59 -133 -68 -127 -4 2 -7
-7 -7 -20 0 -33 23 -30 36 4 5 15 20 47 33 72 20 39 41 101 34 99 -2 0 -9 -3
-15 -6z"/>
<path d="M5475 3550 c3 -5 12 -10 20 -10 8 0 17 5 20 10 4 6 -5 10 -20 10 -15
0 -24 -4 -20 -10z"/>
<path d="M5220 3509 c0 -5 5 -7 10 -4 6 3 10 8 10 11 0 2 -4 4 -10 4 -5 0 -10
-5 -10 -11z"/>
<path d="M2783 3498 c-18 -6 -33 -15 -33 -19 0 -5 -8 -9 -19 -9 -23 0 -47 -25
-31 -35 5 -3 13 -4 18 -2 4 3 8 -13 9 -35 0 -21 8 -47 17 -57 9 -10 16 -22 16
-27 0 -16 24 -64 32 -64 14 0 18 20 8 40 -9 17 -8 21 2 19 39 -5 68 2 68 17 0
14 3 14 15 4 23 -19 29 -6 30 68 2 56 -2 71 -19 89 -23 25 -59 28 -113 11z"/>
<path d="M1061 3443 c21 -3 26 -9 22 -23 -3 -12 1 -22 10 -26 22 -8 84 21 84
40 0 13 -12 16 -71 15 -39 -1 -59 -4 -45 -6z"/>
<path d="M941 3351 c-1 -27 2 -32 11 -23 8 8 8 17 0 34 -10 22 -11 21 -11 -11z"/>
<path d="M1398 3340 c-39 -12 -48 -19 -41 -36 5 -13 16 -14 57 -9 28 4 60 14
71 21 11 8 28 14 38 14 10 0 15 5 12 10 -7 12 -98 12 -137 0z"/>
<path d="M1034 3316 c-20 -9 -35 -26 -43 -47 -13 -39 -8 -48 16 -27 20 18 32
21 87 19 39 -1 39 -1 20 -22 -13 -15 -28 -20 -52 -17 -29 4 -33 1 -41 -26 -4
-17 -4 -39 0 -48 8 -15 12 -15 37 -2 30 15 52 18 52 7 0 -5 12 -17 27 -27 14
-11 23 -14 19 -8 -4 7 -1 12 8 12 24 0 47 44 45 86 -2 22 -1 45 2 52 13 42
-115 76 -177 48z"/>
<path d="M936 3265 c4 -27 8 -52 10 -54 8 -9 2 65 -7 84 -6 13 -7 4 -3 -30z"/>
<path d="M1388 3262 c-22 -4 -23 -35 -2 -67 21 -32 40 -31 88 1 21 15 46 24
57 21 39 -10 27 11 -15 27 -44 17 -97 24 -128 18z"/>
<path d="M2642 3238 c-18 -18 -15 -27 8 -23 29 6 41 15 35 26 -8 13 -29 11
-43 -3z"/>
<path d="M1242 3183 c-20 -66 -13 -90 16 -61 13 13 15 52 3 82 -6 15 -9 11
-19 -21z"/>
<path d="M2698 3203 c7 -3 16 -2 19 1 4 3 -2 6 -13 5 -11 0 -14 -3 -6 -6z"/>
<path d="M1831 3174 c0 -11 3 -14 6 -6 3 7 2 16 -1 19 -3 4 -6 -2 -5 -13z"/>
<path d="M2631 3178 c0 -10 -8 -18 -16 -18 -8 0 -15 -2 -15 -4 0 -2 -3 -12 -7
-21 -5 -15 -1 -16 24 -11 24 6 32 3 37 -10 6 -16 7 -16 20 1 7 10 28 20 47 22
65 7 56 23 -13 23 -55 0 -67 3 -71 18 -4 16 -5 16 -6 0z"/>
<path d="M1835 3120 c2 -29 10 -33 13 -5 1 14 -2 25 -6 25 -5 0 -8 -9 -7 -20z"/>
<path d="M5250 3130 c0 -5 5 -10 11 -10 5 0 7 5 4 10 -3 6 -8 10 -11 10 -2 0
-4 -4 -4 -10z"/>
<path d="M1760 3094 c0 -27 20 -54 40 -54 24 0 26 18 4 48 -18 25 -44 29 -44
6z"/>
<path d="M1320 3036 c0 -14 29 -31 38 -22 2 3 2 12 -1 21 -8 19 -37 20 -37 1z"/>
<path d="M4373 2988 c-24 -12 -52 -73 -30 -65 6 2 17 13 22 24 6 12 17 28 24
37 15 18 14 19 -16 4z"/>
<path d="M1415 2940 c-3 -5 1 -10 9 -10 9 0 16 5 16 10 0 6 -4 10 -9 10 -6 0
-13 -4 -16 -10z"/>
<path d="M4215 2836 c-11 -8 -16 -20 -12 -30 4 -9 2 -16 -3 -16 -6 0 -10 5
-10 10 0 6 -7 10 -15 10 -8 0 -15 -9 -15 -20 0 -11 -4 -20 -10 -20 -5 0 -10 5
-10 10 0 17 -17 11 -47 -14 -25 -21 -26 -26 -15 -50 17 -37 35 -41 76 -14 24
16 34 28 30 40 -2 9 1 20 7 24 9 5 10 2 6 -9 -3 -9 -2 -19 3 -22 6 -4 10 4 10
15 0 12 7 37 16 56 19 40 15 50 -11 30z"/>
<path d="M3956 2625 c-3 -8 -1 -15 4 -15 6 0 10 7 10 15 0 8 -2 15 -4 15 -2 0
-6 -7 -10 -15z"/>
<path d="M3950 2591 c0 -5 5 -13 10 -16 6 -3 10 -2 10 4 0 5 -4 13 -10 16 -5
3 -10 2 -10 -4z"/>
<path d="M3930 2520 c0 -5 7 -10 16 -10 8 0 12 5 9 10 -3 6 -10 10 -16 10 -5
0 -9 -4 -9 -10z"/>
<path d="M3750 2100 c0 -9 39 -25 46 -18 2 3 -7 10 -21 16 -14 6 -25 7 -25 2z"/>
<path d="M3826 3436 c4 -17 -1 -34 -15 -55 -27 -38 -26 -43 6 -58 63 -30 79
-8 43 62 -11 22 -20 45 -20 52 0 6 -5 15 -10 18 -7 4 -9 -2 -4 -19z"/>
<path d="M3725 3359 c-12 -19 5 -23 22 -6 16 16 16 17 1 17 -9 0 -20 -5 -23
-11z"/>
<path d="M5128 3463 c6 -2 18 -2 25 0 6 3 1 5 -13 5 -14 0 -19 -2 -12 -5z"/>
<path d="M1681 1832 c0 -16 3 -21 6 -12 3 8 10 18 15 21 5 3 3 9 -6 12 -12 5
-16 0 -15 -21z"/>
<path d="M1722 1828 c2 -6 10 -14 16 -16 7 -2 10 2 6 12 -7 18 -28 22 -22 4z"/>
<path d="M1688 1783 c7 -3 16 -2 19 1 4 3 -2 6 -13 5 -11 0 -14 -3 -6 -6z"/>
<path d="M1745 1780 c3 -5 8 -10 11 -10 2 0 4 5 4 10 0 6 -5 10 -11 10 -5 0
-7 -4 -4 -10z"/>
<path d="M1831 1718 c-1 -9 -8 -21 -17 -26 -14 -8 -13 -10 5 -15 27 -7 34 5
22 35 -7 16 -10 18 -10 6z"/>
<path d="M1660 1500 l-25 -8 28 -1 c15 -1 27 4 27 9 0 6 -1 10 -2 9 -2 -1 -14
-5 -28 -9z"/>
<path d="M2435 1420 c-3 -5 1 -10 9 -10 9 0 16 5 16 10 0 6 -4 10 -9 10 -6 0
-13 -4 -16 -10z"/>
<path d="M2525 1270 c-3 -5 -1 -10 4 -10 6 0 11 5 11 10 0 6 -2 10 -4 10 -3 0
-8 -4 -11 -10z"/>
</g>
</svg>
